<svg xmlns="http://www.w3.org/2000/svg" version="1.1" xmlns:xlink="http://www.w3.org/1999/xlink" xmlns:svgjs="http://svgjs.dev/svgjs" width="1000" height="1000"><g clip-path="url(#SvgjsClipPath1115)"><rect width="1000" height="1000" fill="#ffffff"></rect><g transform="matrix(6.451612903225806,0,0,6.451612903225806,190.32258064516134,100)"><svg xmlns="http://www.w3.org/2000/svg" version="1.1" xmlns:xlink="http://www.w3.org/1999/xlink" xmlns:svgjs="http://svgjs.dev/svgjs" width="96" height="124"><svg width="96" height="124" xmlns="http://www.w3.org/2000/svg" xmlns:xlink="http://www.w3.org/1999/xlink" xml:space="preserve" overflow="hidden"><g><g><g><path d="M77.7902 89.9915C83.1109 95.5877 86.3907 102.814 87.1003 110.503 78.4241 117.072 67.9515 120.84 57.0789 121.304 56.297 121.304 55.4969 121.304 54.6968 121.304 42.7982 121.325 31.2312 117.384 21.8205 110.103 20.6749 109.212 19.5657 108.284 18.4929 107.284 18.818 105.522 19.2863 103.788 19.893 102.102 22.0065 96.2394 25.6475 91.0478 30.4396 87.0639 31.6554 86.0552 32.9439 85.1375 34.2946 84.3181 35.6151 83.4742 37.0016 82.7385 38.4405 82.1179 40.3078 81.2569 42.2573 80.5868 44.2593 80.1177 44.2593 79.6813 44.2593 79.2449 44.2593 78.8085 44.0956 76.4264 43.8411 74.0625 43.4956 71.7532L43.4956 71.7532C43.1865 69.5893 42.8046 67.4618 42.3682 65.3707 42.2045 64.6433 42.0409 63.916 41.859 63.2068 40.9697 59.6535 39.8708 56.1562 38.5678 52.7329 37.7859 50.6236 36.9494 48.5689 36.0402 46.5505 35.8584 46.1322 35.6766 45.7504 35.4765 45.3321 35.0038 45.7322 34.531 46.1504 34.0764 46.5868 33.6218 47.0232 32.8399 47.8051 32.258 48.4052 26.0404 55.4043 23.3616 64.8606 24.9845 74.0807 25.0594 74.6191 25.1627 75.1532 25.2936 75.6809 24.9663 75.1899 24.639 74.6807 24.3481 74.1716 19.9569 66.6859 19.1368 57.6309 22.1115 49.478 10.1652 54.8612 2.49609 66.7601 2.52754 79.8631 2.52754 80.1359 2.52754 80.4086 2.52754 80.6814 1.4569 76.406 0.919426 72.0146 0.927372 67.6073 0.927372 66.4799 0.927372 65.3525 1.03647 64.2433 1.66989 54.2696 5.09098 44.6741 10.9103 36.5494 9.2966 36.3143 7.66773 36.1986 6.03701 36.2039 4.01383 36.201 1.99412 36.3714-1.2139e-07 36.713 4.50134 29.4164 12.4652 24.9767 21.0386 24.9845 21.3292 24.9663 21.6209 24.9663 21.9114 24.9845L22.2388 24.9845C22.2222 24.8883 22.2222 24.7898 22.2388 24.6936 22.457 23.8935 22.6933 23.0934 22.9661 22.3115 26.9245 11.0176 36.4456 2.57653 48.1324 8.32388e-07 45.4087 4.58351 43.7902 9.73841 43.4047 15.0562 47.1145 14.2508 50.9006 13.8485 54.6968 13.856 66.4622 13.8145 77.9138 17.6487 87.2821 24.7663 74.5509 18.1414 59.0092 20.4046 48.6961 30.3851L49.3508 30.3851C59.5924 30.3947 69.0747 35.7884 74.3171 44.5866 68.8843 40.3747 62.189 38.1194 55.315 38.1859 51.3992 38.187 47.5187 38.9273 43.8774 40.368 43.1501 40.6589 42.4409 40.968 41.7499 41.3135 43.0955 43.1077 44.3684 44.9625 45.5685 46.8778 45.8958 47.3505 46.205 47.8597 46.4959 48.3506 50.2863 54.5626 53.3375 61.196 55.5878 68.1164 56.8376 71.9057 57.8279 75.7756 58.5517 79.6995 61.5682 80.1933 64.5042 81.0923 67.28 82.3725 67.8982 82.6452 68.4801 82.9362 69.0983 83.2635 71.3426 84.4776 73.4464 85.9349 75.3717 87.6094 76.2213 88.358 77.0286 89.1534 77.7902 89.9915Z" fill="#212121" fill-rule="nonzero" fill-opacity="1" transform="matrix(1 0 0 1.01353 0.0584866 6.18987e-15)"></path><path d="M71.935 65.5525C73.9939 72.7454 81.494 76.9072 88.6868 74.8482 88.6913 74.8469 88.6959 74.8457 88.7004 74.8444 89.7731 74.5313 90.8047 74.092 91.7735 73.5352 93.3802 72.6202 94.7795 71.3818 95.883 69.8984 86.913 66.8839 81.4998 57.7588 83.1544 48.4416 82.54 48.5338 81.9324 48.6674 81.336 48.8416 78.5655 49.6262 76.1187 51.2764 74.3534 53.5512 73.8807 54.1695 73.461 54.8263 73.0988 55.5151 71.416 58.5808 70.9984 62.183 71.935 65.5525Z" fill="#212121" fill-rule="nonzero" fill-opacity="0.5" transform="matrix(1 0 0 1.01353 0.0584866 6.18987e-15)"></path></g></g></g></svg></svg></g></g><defs><clipPath id="SvgjsClipPath1115"><rect width="1000" height="1000" x="0" y="0" rx="250" ry="250"></rect></clipPath></defs></svg>